<svg width="423" height="481" viewBox="0 0 423 481" fill="none" xmlns="http://www.w3.org/2000/svg">
<mask id="mask0_87_336" style="mask-type:alpha" maskUnits="userSpaceOnUse" x="0" y="0" width="423" height="481">
<rect width="423" height="481" rx="32" fill="#011C44"/>
</mask>
<g mask="url(#mask0_87_336)">
<path fill-rule="evenodd" clip-rule="evenodd" d="M-62.7738 272.845C-65.9301 223.936 -80.2858 173.973 -57.0167 131.508C-27.1259 76.9586 17.7604 10.7451 77.2653 17.2816C136.751 23.8161 147.9 109.842 186.167 158.221C217.954 198.408 277.423 220.597 279.414 272.845C281.427 325.664 233.598 362.892 195.268 397.049C161.042 427.549 122.111 453.145 77.2653 452.984C32.5575 452.823 -11.6227 432.623 -39.9348 396.203C-66.1371 362.498 -59.9698 316.296 -62.7738 272.845Z" stroke="#011F4A" stroke-width="4"/>
<path fill-rule="evenodd" clip-rule="evenodd" d="M125.637 438.166C121.763 376.715 84.6676 279.165 140.646 261.143C207.657 239.57 239.081 372.989 308.914 379.161C366.312 384.235 399.604 261.436 451.1 288.584C496.135 312.326 421.86 385.182 420.838 438.166C419.863 488.729 470.872 538.878 445.444 581.797C419.205 626.086 358.484 625.094 308.914 627.08C256.689 629.172 198.907 631.648 161.576 593.169C124.038 554.476 129.114 493.331 125.637 438.166Z" stroke="#011F4A" stroke-width="4"/>
<path fill-rule="evenodd" clip-rule="evenodd" d="M-60.1575 635.86C-74.5025 583.028 -130.863 530.824 -103.512 483.998C-77.0558 438.702 -9.35436 457.99 41.0397 462.604C85.5547 466.68 126.177 480.881 162.416 508.346C207.929 542.841 263.435 577.263 269.642 635.86C276.162 697.409 239.57 757.597 192.812 795.308C150.589 829.363 91.9202 836.671 41.0398 820.235C-0.207786 806.911 -17.7918 759.588 -39.3482 720.314C-53.7218 694.126 -52.2645 664.93 -60.1575 635.86Z" stroke="#011F4A" stroke-width="4"/>
<path fill-rule="evenodd" clip-rule="evenodd" d="M-404.487 599.935C-370.405 544.775 -288.828 670.024 -230.017 647.748C-166.662 623.752 -175.28 477.334 -108.73 487.914C-50.4163 497.184 -117.869 605.819 -108.369 667.088C-101.69 710.162 -53.8826 740.946 -62.8881 783.563C-73.2191 832.452 -108.208 885.169 -155.534 890.282C-201.866 895.288 -234.259 843.864 -262.819 805.164C-279.342 782.774 -261.806 747.761 -277.639 724.824C-313.019 673.571 -437.328 653.088 -404.487 599.935Z" stroke="#011F4A" stroke-width="4"/>
<path fill-rule="evenodd" clip-rule="evenodd" d="M371.14 225.624C353.743 179.074 435.364 153.71 480.759 138.44C509.076 128.915 535.198 152.587 563.889 160.789C580.48 165.532 599.885 162.401 611.408 175.787C622.609 188.799 619.425 208.096 619.698 225.624C619.979 243.631 617.78 259.823 612.989 277.117C598.372 329.876 615.698 435.204 563.889 427.07C509.076 418.465 566.834 304.738 527.575 263.708C488.157 222.511 391.448 279.962 371.14 225.624Z" stroke="#011F4A" stroke-width="4"/>
<path fill-rule="evenodd" clip-rule="evenodd" d="M-233.878 103.957C-230.827 80.8457 -208.407 68.7634 -197.969 48.1635C-177.457 7.6811 -187.866 -64.0515 -144.816 -71.8185C-104.168 -79.1518 -101.894 -1.92192 -69.5983 25.0035C-27.5179 60.0864 62.3674 47.6795 66.0193 103.957C69.5878 158.949 -10.1812 173.127 -58.6024 194.453C-86.1599 206.59 -115.085 199.997 -144.816 196.813C-169.834 194.135 -197.226 196.303 -215.069 177.7C-232.949 159.058 -237.337 130.16 -233.878 103.957Z" stroke="#011F4A" stroke-width="4"/>
<path fill-rule="evenodd" clip-rule="evenodd" d="M157.658 101.949C152.084 72.4228 135.328 34.2316 157.45 15.0845C179.919 -4.36236 212.648 40.4541 240.187 30.5189C304.866 7.18431 349.037 -109.319 409.553 -75.8678C462.924 -46.3672 371.409 38.6592 369.412 101.949C367.563 160.558 449.63 244.303 398.693 268.363C339.405 296.366 298.744 192.636 240.187 162.987C222.885 154.226 200.527 171.688 184.824 160.074C167.354 147.153 161.813 123.956 157.658 101.949Z" stroke="#011F4A" stroke-width="4"/>
<path fill-rule="evenodd" clip-rule="evenodd" d="M-36.64 52.5462C-41.4439 5.05406 -79.928 -62.2159 -39.995 -85.2306C4.01403 -110.594 41.2685 -22.5383 91.4801 -21.2936C138.907 -20.118 176.406 -104.799 216.879 -78.8631C254.072 -55.0286 221.59 9.60573 206.705 52.5462C197.064 80.3588 166.692 90.0181 150.051 113.924C126.492 147.769 129.881 206.433 91.4801 218.078C52.1433 230.007 11.0023 197.243 -14.7939 163.914C-38.477 133.315 -32.677 91.7251 -36.64 52.5462Z" stroke="#011F4A" stroke-width="4"/>
</g>
</svg>
