<svg width="360" height="388" viewBox="0 0 360 388" fill="none" xmlns="http://www.w3.org/2000/svg">
<path fill-rule="evenodd" clip-rule="evenodd" d="M173.788 154.852C172.578 136.349 167.074 117.447 175.995 101.382C187.455 80.746 204.663 55.6968 227.476 58.1696C250.282 60.6417 254.556 93.1861 269.227 111.488C281.414 126.691 304.213 135.086 304.976 154.852C305.748 174.833 287.411 188.917 272.717 201.839C259.595 213.377 244.669 223.061 227.476 223C210.336 222.939 193.398 215.297 182.544 201.519C172.498 188.768 174.863 171.289 173.788 154.852Z" stroke="#011F4A" stroke-width="2"/>
<path fill-rule="evenodd" clip-rule="evenodd" d="M263.365 278.6C270.155 263.675 289.267 262.634 303.893 256.07C311.013 252.874 318.079 252.328 325.666 250.637C337.312 248.043 348.802 238.05 359.386 243.708C371.242 250.045 374.169 265.368 377.981 278.6C384.234 300.305 406.02 330.231 388.028 343.13C368.77 356.936 349.092 316.47 325.666 316.106C303.075 315.754 284.68 352.976 265.151 341.219C247.017 330.303 254.428 298.24 263.365 278.6Z" stroke="#011F4A" stroke-width="2"/>
<path fill-rule="evenodd" clip-rule="evenodd" d="M61.6596 160.634C61.8114 135.034 15.4631 111.091 32.9388 93.0662C50.4455 75.0098 76.7863 110.008 97.8879 123.268C105.464 128.029 107.322 137.818 113.922 143.954C121.413 150.919 133.365 151.404 138.078 160.634C146.819 177.752 158.34 197.651 150.26 215.117C141.104 234.91 118.867 245.039 97.8879 247.512C74.4362 250.276 41.5255 251.566 32.1325 229.04C22.1919 205.202 61.5056 186.618 61.6596 160.634Z" stroke="#011F4A" stroke-width="2"/>
<path fill-rule="evenodd" clip-rule="evenodd" d="M245.977 217.003C244.495 193.707 230.307 156.726 251.717 149.894C277.348 141.715 289.367 192.294 316.077 194.634C338.03 196.558 350.764 150.005 370.46 160.296C387.685 169.297 359.276 196.917 358.886 217.003C358.513 236.171 378.023 255.183 368.297 271.454C358.261 288.243 335.036 287.867 316.077 288.62C296.102 289.413 274.001 290.352 259.723 275.764C245.365 261.096 247.307 237.916 245.977 217.003Z" stroke="#011F4A" stroke-width="2"/>
<path fill-rule="evenodd" clip-rule="evenodd" d="M174.429 292.332C168.936 272.418 147.356 252.74 157.828 235.09C167.959 218.016 193.882 225.287 213.178 227.026C230.223 228.562 245.778 233.915 259.654 244.268C277.081 257.27 298.334 270.245 300.711 292.332C303.208 315.532 289.196 338.219 271.293 352.433C255.125 365.27 232.661 368.024 213.178 361.829C197.384 356.807 190.651 338.969 182.397 324.165C176.893 314.294 177.451 303.289 174.429 292.332Z" stroke="#011F4A" stroke-width="2"/>
<path fill-rule="evenodd" clip-rule="evenodd" d="M42.0363 278.467C55.1489 257.55 86.3137 304.896 108.878 296.407C133.186 287.262 130.008 231.832 155.51 235.776C177.857 239.231 151.905 280.426 155.495 303.615C158.018 319.918 176.319 331.529 172.83 347.673C168.827 366.194 155.369 386.187 137.223 388.167C119.457 390.106 107.083 370.665 96.1683 356.039C89.8532 347.577 96.6057 334.304 90.5559 325.634C77.0371 306.262 29.4012 298.623 42.0363 278.467Z" stroke="#011F4A" stroke-width="2"/>
<path fill-rule="evenodd" clip-rule="evenodd" d="M339.915 136.761C333.266 119.183 364.462 109.605 381.812 103.839C392.635 100.242 402.619 109.182 413.585 112.279C419.927 114.07 427.343 112.887 431.748 117.942C436.029 122.856 434.812 130.143 434.916 136.761C435.024 143.561 434.183 149.676 432.352 156.207C426.765 176.129 433.387 215.903 413.585 212.832C392.635 209.582 414.711 166.637 399.706 151.143C384.64 135.586 347.677 157.281 339.915 136.761Z" stroke="#011F4A" stroke-width="2"/>
<path fill-rule="evenodd" clip-rule="evenodd" d="M107.42 90.9549C108.595 82.1759 117.233 77.5864 121.254 69.7614C129.156 54.3839 125.146 27.1359 141.731 24.1856C157.39 21.4 158.267 50.7362 170.709 60.9639C186.92 74.2904 221.548 69.5775 222.955 90.9549C224.33 111.844 193.599 117.229 174.945 125.33C164.328 129.94 153.185 127.436 141.731 126.227C132.092 125.209 121.54 126.033 114.666 118.966C107.777 111.885 106.087 100.908 107.42 90.9549Z" stroke="#011F4A" stroke-width="2"/>
<path fill-rule="evenodd" clip-rule="evenodd" d="M258.332 90.3865C256.202 79.2405 249.797 64.8234 258.253 57.5955C266.841 50.2544 279.352 67.1724 289.879 63.4219C314.603 54.6132 331.487 10.6337 354.62 23.2613C375.021 34.3977 340.039 66.4949 339.276 90.3865C338.569 112.511 369.939 144.125 350.468 153.207C327.805 163.779 312.263 124.621 289.879 113.428C283.265 110.121 274.719 116.713 268.716 112.328C262.039 107.451 259.921 98.6943 258.332 90.3865Z" stroke="#011F4A" stroke-width="2"/>
<path fill-rule="evenodd" clip-rule="evenodd" d="M183.17 71.6614C181.327 53.76 166.567 28.4037 181.883 19.7287C198.762 10.1682 213.05 43.3595 232.307 43.8286C250.497 44.2718 264.879 12.3526 280.402 22.1288C294.666 31.1128 282.209 55.4756 276.5 71.6614C272.802 82.1448 261.153 85.7857 254.771 94.7968C245.736 107.554 247.035 129.666 232.307 134.056C217.221 138.552 201.442 126.202 191.548 113.64C182.465 102.106 184.689 86.4292 183.17 71.6614Z" stroke="#011F4A" stroke-width="2"/>
<path fill-rule="evenodd" clip-rule="evenodd" d="M-63.5371 68.3923C-65.6728 47.9489 -67.6526 23.5038 -52.6262 10.1447C-37.8739 -2.97052 -16.0434 9.17506 3.35965 8.91889C23.2573 8.65619 54.0557 -10.8362 60.7847 8.64739C68.7821 31.8037 35.1126 46.7278 23.8998 68.3923C21.0177 73.9609 22.2315 80.2267 20.5866 86.3153C15.1064 106.601 21.8538 135.833 3.35966 144.422C-13.4248 152.217 -29.2381 129.325 -41.6493 115.22C-53.3597 101.91 -61.6632 86.3304 -63.5371 68.3923Z" stroke="#011F4A" stroke-width="2"/>
</svg>
